# xmcd
#
# Track frame offsets:
#	150
#	61555
#	101902
#	140635
#	175427
#	202457
#	244215
#	268120
#
# Disc length: 3826 seconds
#
# Revision: 1
# Processed by: cddbd v1.5.1PL0 Copyright (c) Steve Scherf et al.
# Submitted via: audiograbber 1.83.01
#
DISCID=800ef008
DTITLE=Billy Gibson - In A Memphis Tone
DYEAR=2004
DGENRE=Blues
TTITLE0=Chicken Shack
TTITLE1=Straight No Chaser
TTITLE2=Body And Soul
TTITLE3=In A Mellow Tone
TTITLE4=Shortnin'
TTITLE5=Gimme Five
TTITLE6=K's Waltz
TTITLE7=Ballad For Bill
EXTD=2004 Inside Sounds/Inside Memphis, Memphis, Tennessee
EXTT0=
EXTT1=
EXTT2=
EXTT3=
EXTT4=
EXTT5=
EXTT6=
EXTT7=
PLAYORDER=
